<?xml version="1.0" encoding="UTF-8"?><svg id="layer1" xmlns="http://www.w3.org/2000/svg" viewBox="0 0 128 128"><defs><style>.cls-1{fill:#2b2b2b;}.cls-2{fill:#f8f8f8;}</style></defs><rect class="cls-2" width="128" height="128"/><path class="cls-1" d="M64,19.99c-18.16,0-32.88,14.72-32.88,32.88s14.72,32.88,32.88,32.88,32.88-14.72,32.88-32.88-14.72-32.88-32.88-32.88ZM64,72.42c-10.8,0-19.55-8.75-19.55-19.55s8.76-19.55,19.55-19.55,19.55,8.76,19.55,19.55-8.76,19.55-19.55,19.55Z"/><path class="cls-1" d="M14.03,128c4.01-23.98,24.85-42.26,49.97-42.26s45.96,18.28,49.97,42.26h13.46c-4.13-31.36-30.94-55.58-63.43-55.58S4.69,96.64.57,128h13.46Z"/></svg>