<?xml version="1.0" encoding="UTF-8"?><svg id="layer1" xmlns="http://www.w3.org/2000/svg" viewBox="0 0 320.25 450"><defs><style>.cls-1{fill:#2b2b2b;}.cls-2{fill:#f8f8f8;}.cls-3{fill:none;stroke:#2b2b2b;stroke-linecap:round;stroke-miterlimit:10;stroke-width:4px;}</style></defs><rect class="cls-2" width="320.25" height="450"/><path class="cls-1" d="M160.12,74.09c-28.79,0-52.13,23.34-52.13,52.13s23.34,52.13,52.13,52.13,52.13-23.34,52.13-52.13-23.34-52.13-52.13-52.13ZM160.12,157.23c-17.13,0-31.01-13.88-31.01-31.01s13.88-31.01,31.01-31.01,31.01,13.88,31.01,31.01-13.88,31.01-31.01,31.01Z"/><polygon class="cls-1" points="13.68 37.3 13.68 10.92 39.94 10.92 13.68 37.3"/><polygon class="cls-1" points="306.19 37.3 306.19 10.92 279.94 10.92 306.19 37.3"/><polygon class="cls-1" points="13.68 412.7 13.68 439.08 39.94 439.08 13.68 412.7"/><polygon class="cls-1" points="306.19 412.7 306.19 439.08 279.94 439.08 306.19 412.7"/><line class="cls-3" x1="33.97" y1="277.16" x2="286.78" y2="277.16"/><line class="cls-3" x1="33.97" y1="290.61" x2="286.78" y2="290.61"/><line class="cls-3" x1="33.97" y1="304.05" x2="286.78" y2="304.05"/><line class="cls-3" x1="33.97" y1="317.49" x2="286.78" y2="317.49"/><line class="cls-3" x1="33.97" y1="330.93" x2="254.92" y2="330.93"/></svg>
